<svg version="1" xmlns="http://www.w3.org/2000/svg" width="682.667" height="682.667" viewBox="0 0 512.000000 512.000000"><path d="M328.4 141.1c-29.9 7.5-47.6 28.6-53.9 64.4-2.5 13.9-2.6 86.5-.2 99 3 15.5 4.5 20 9.8 30.5 4.4 8.7 9.7 15.4 17.1 21.5 5.4 4.4 16.4 10.5 19 10.5.8 0 1.8.4 2.3.9 3.1 2.8 29.8 4.8 39 2.9 8-1.6 9.1-1.9 12.5-3 21.5-6.7 37.8-25.5 44.5-51.3 1.1-4.3 1.7-7.5 3.2-17 .5-3.2.5-86.8 0-89-.3-1.1-.8-4-1.2-6.5-1.8-11.5-7.5-26.7-13.5-35.7-5.2-7.7-15.4-16.8-24-21.2-4.3-2.3-8.7-4.1-9.7-4.1s-2.4-.5-3.1-1.2c-.7-.7-1.2-.9-1.2-.6 0 .3-2.8 0-6.2-.8-8.3-2-25.3-1.6-34.4.7zm27.5 30.6c5.7.8 9.7 2.8 15 7.8 3.9 3.6 5.5 6.2 7.6 12 1.5 4 2.9 8.8 3.1 10.7.3 1.8.7 5.4 1 7.9l.6 4.6-7.9 5.6c-7.1 5.1-30.2 22-36.3 26.7-1.4 1-7.8 5.7-14.2 10.4-10.7 7.8-11.8 8.3-12.4 6.4-.8-2.7-.8-43.9.1-54.3.9-10.7 3.2-18.5 7.4-25 3.5-5.5 6.1-7.9 11.3-10.4 4.1-2 18.2-4.3 20.2-3.3.4.3 2.5.7 4.5.9zm27 104.5c-.6 29.9-.9 33.8-3.4 40.8-4.9 14-13.2 21.1-26.3 22.6-3.1.3-5.9.6-6.2.7-1.7.3-11.8-1.8-14.7-2.9-4.5-1.9-12.1-9.9-14.5-15.2-4.1-9.1-6.5-24.5-4.1-26 .6-.4 2.1-1.5 3.4-2.4 9.7-7.1 36-26.3 43.4-31.8 5-3.6 11.7-8.6 15-11 3.3-2.4 6.2-4.8 6.4-5.4 1.3-3.2 1.5 5.3 1 30.6zM171.5 145.1c-6 2.3-15.9 5.9-22 8.1-6 2.2-11.9 4.3-13 4.8-1.1.5-9.6 3.6-19 7-18.7 6.8-20.4 7.4-25.5 9.8l-3.5 1.7-.2 13c-.3 14.4.2 19.5 1.9 19.5.9 0 24.3-8.3 46.8-16.7 3.6-1.3 7-2.5 7.5-2.6.7-.1 1 30.2 1.1 89.1.1 49.1.5 89.6.9 90 1 1 34.6 1.1 37.2.1 1.9-.7 2.1-1.5 2.2-9.9.1-5.1.3-9.6.6-10 .3-.5.2-1.1-.2-1.3-.5-.3-.6-4-.3-8.2.3-4.2.3-7.8 0-8-.3-.2-.3-32.6 0-72s.3-71.8 0-72c-.3-.2-.3-3.8 0-8s.3-7.8 0-8c-.3-.2-.3-3.8 0-8s.3-7.9.1-8.1c-.3-.2-.3-3.2-.2-6.6.2-4.2-.2-6.3-1.1-6.9-1.7-1.1-.8-1.4-13.3 3.2z"/></svg>